<svg id="a8bf7cbf-ad0a-4c48-b1f1-499e35fbd279" data-name="Layer 1" xmlns="http://www.w3.org/2000/svg" xmlns:xlink="http://www.w3.org/1999/xlink" viewBox="0 0 239.032 117.361">
  <defs>
    <linearGradient id="a65059a2-c9f7-474a-b66e-1c94b2a5771a" x1="2.175" y1="254.07" x2="1.799" y2="253.393" gradientTransform="matrix(358.813, 0, 0, -116.205, -527.451, 29572.761)" gradientUnits="userSpaceOnUse">
      <stop offset="0" stop-color="red" stop-opacity="0.502"/>
      <stop offset="1" stop-color="red" stop-opacity="0.2"/>
    </linearGradient>
  </defs>
  <g id="ac828013-d607-4d7b-839b-157550463560" data-name=" 306926">
    <path id="eeb06eb2-4d1e-406b-8635-b744c1d7ef4c" data-name="Path 94" d="M54.681,128v37.946h1.8V90.054h-1.8Z" transform="translate(-16.968 -48.585)"/>
    <path id="e3ada99c-2bee-4720-badb-d56bcaf118d1" data-name="Path 95" d="M57.768,128v37.946h.772V90.054h-.772Z" transform="translate(-16.968 -48.585)"/>
    <path id="ad669246-3f92-4c36-97da-371a38ad99e0" data-name="Path 96" d="M60.727,128v37.946H61.5V90.054h-.772Z" transform="translate(-16.968 -48.585)"/>
    <path id="e42dc66d-2882-42a6-a09b-c47be1ca94df" data-name="Path 97" d="M65.872,128v37.946H69.6V90.054h-3.73Z" transform="translate(-16.968 -48.585)"/>
    <path id="b9ebf9a8-d506-4c4a-8fcf-a48481af4dd0" data-name="Path 98" d="M70.888,128v37.946h.772V90.054h-.772Z" transform="translate(-16.968 -48.585)"/>
    <path id="f9b358af-a3d0-42b0-b7ca-5e3c60002b57" data-name="Path 99" d="M72.946,128v37.946h2.83V90.054h-2.83Z" transform="translate(-16.968 -48.585)"/>
    <path id="b1bc86f1-088e-44e3-a3d6-c7ddb04f2f2b" data-name="Path 100" d="M77.063,128v37.946h2.7V90.054h-2.7Z" transform="translate(-16.968 -48.585)"/>
    <path id="b340eac8-a647-4b21-80ba-40f25ae57e85" data-name="Path 101" d="M81.05,128v37.946h.772V90.054H81.05Z" transform="translate(-16.968 -48.585)"/>
    <path id="fcdc092f-7386-4dea-a534-dc934a53e945" data-name="Path 102" d="M85.038,128v37.946h1.8V90.054h-1.8Z" transform="translate(-16.968 -48.585)"/>
    <path id="b77eac99-4664-495d-8894-a468af8d4fe4" data-name="Path 103" d="M88.125,128v37.946H88.9V90.054h-.772Z" transform="translate(-16.968 -48.585)"/>
    <path id="eb1b4ff3-91a8-443d-83b5-c568dcff50ac" data-name="Path 104" d="M93.141,128v37.946h1.8V90.054h-1.8Z" transform="translate(-16.968 -48.585)"/>
    <path id="fcb3cb75-f41a-4969-b730-41ff4b72a007" data-name="Path 105" d="M96.228,128v37.946H97V90.054h-.772Z" transform="translate(-16.968 -48.585)"/>
    <path id="aa1190bd-9702-4dd4-a8e9-a11068eea520" data-name="Path 106" d="M99.315,128v37.946h1.672V90.054H99.315Z" transform="translate(-16.968 -48.585)"/>
    <path id="ebc65884-6651-4275-b51b-72b20d74aa6b" data-name="Path 107" d="M105.36,128v37.946h.772V90.054h-.772Z" transform="translate(-16.968 -48.585)"/>
    <path id="a197a6e5-ab9a-4616-8498-ce4719e8fb00" data-name="Path 108" d="M108.448,128v37.946h.772V90.054h-.772Z" transform="translate(-16.968 -48.585)"/>
    <path id="efe145e0-93e9-44fb-8f40-6d7d5a2d02ab" data-name="Path 109" d="M110.506,128v37.946h.642V90.054h-.642Z" transform="translate(-16.968 -48.585)"/>
    <path id="a9d91b3c-fab5-4f3e-b4f3-776c1399065c" data-name="Path 110" d="M115.522,128v37.946h1.8V90.054h-1.8Z" transform="translate(-16.968 -48.585)"/>
    <path id="fc5d9715-432b-44db-ac91-bb9afa558699" data-name="Path 111" d="M118.481,128v37.946h.772V90.054h-.772Z" transform="translate(-16.968 -48.585)"/>
    <path id="bf5e0c56-0504-4cbe-8710-e8ebc961d575" data-name="Path 112" d="M121.568,128v37.946h.772V90.054h-.772Z" transform="translate(-16.968 -48.585)"/>
    <path id="b9db7740-8d96-497b-9722-b8abff19f4e4" data-name="Path 113" d="M123.626,128v37.946h.772V90.054h-.772Z" transform="translate(-16.968 -48.585)"/>
    <path id="a57a8f4d-356d-4f5e-ac18-b98ce4ba2222" data-name="Path 114" d="M126.584,128v37.946h3.86V90.054h-3.86Z" transform="translate(-16.968 -48.585)"/>
    <path id="bf4d2754-f132-4a51-8ad0-886ef649583e" data-name="Path 115" d="M132.759,128v37.946h.772V90.054h-.772Z" transform="translate(-16.968 -48.585)"/>
    <path id="a968906b-f98f-4f9c-a82e-d117f2ad8f71" data-name="Path 116" d="M134.817,128v37.946h1.672V90.054h-1.672Z" transform="translate(-16.968 -48.585)"/>
    <path id="a0ad00ee-3ca5-4b5c-8c84-9c294e3c0abe" data-name="Path 117" d="M138.8,128v37.946h.772V90.054H138.8Z" transform="translate(-16.968 -48.585)"/>
    <path id="b2f354a5-e256-4dd8-b143-dfcb87be9223" data-name="Path 118" d="M143.821,128v37.946h.772V90.054h-.772Z" transform="translate(-16.968 -48.585)"/>
    <path id="afe0438b-2636-40b3-b7e8-8696c65f39dc" data-name="Path 119" d="M148.837,128v37.946h.772V90.054h-.772Z" transform="translate(-16.968 -48.585)"/>
    <path id="a2de6f14-89a6-4dfa-9040-6318ea0f556c" data-name="Path 120" d="M151.924,128v37.946h1.8V90.054h-1.8Z" transform="translate(-16.968 -48.585)"/>
    <path id="ac605b87-ee42-46da-b497-7761ffba54d4" data-name="Path 121" d="M155.011,128v37.946h.772V90.054h-.772Z" transform="translate(-16.968 -48.585)"/>
    <path id="ac6fd0cf-1c3e-46a0-ac01-21bda4c24a57" data-name="Path 122" d="M160.028,128v37.946h1.8V90.054h-1.8Z" transform="translate(-16.968 -48.585)"/>
    <path id="ea5c9e06-7c37-4acb-aad6-df7e9b891634" data-name="Path 123" d="M163.115,128v37.946h.772V90.054h-.772Z" transform="translate(-16.968 -48.585)"/>
    <path id="b08d4f42-fa2f-43db-bb76-cb541b257e70" data-name="Path 124" d="M166.137,128v37.946h.708V90.054h-.708Z" transform="translate(-16.968 -48.585)"/>
    <path id="a021484a-ae8a-4aee-b4e1-741a5e927d0d" data-name="Path 125" d="M169.16,128v37.946h.772V90.054h-.772Z" transform="translate(-16.968 -48.585)"/>
    <path id="a6c8156e-6d22-414d-aa41-399e83f8a271" data-name="Path 126" d="M171.218,128v37.946h1.8V90.054h-1.8Z" transform="translate(-16.968 -48.585)"/>
    <path id="fccfa099-7514-4c20-915d-71e5cf8d0675" data-name="Path 127" d="M177.264,128v37.946h.772V90.054h-.772Z" transform="translate(-16.968 -48.585)"/>
    <path id="ad8ac911-3b57-40c8-b8ac-33b991a0ca06" data-name="Path 128" d="M179.322,128v37.946h3.73V90.054h-3.73Z" transform="translate(-16.968 -48.585)"/>
    <path id="aa600681-0ba3-46b1-a183-0778ed3710be" data-name="Path 129" d="M184.338,128v37.946h2.83V90.054h-2.83Z" transform="translate(-16.968 -48.585)"/>
    <path id="e0e7b418-a057-48e1-b1f2-b3bd984ef658" data-name="Path 130" d="M188.455,128v37.946h1.8V90.054h-1.8Z" transform="translate(-16.968 -48.585)"/>
    <path id="e69e9c44-c685-428b-b3c6-86c4b938ef82" data-name="Path 131" d="M193.472,128v37.946H196.3V90.054h-2.829Z" transform="translate(-16.968 -48.585)"/>
    <path id="bee985a7-bdad-4168-acdd-b3f27eb19a3a" data-name="Path 132" d="M197.459,128v37.946h.772V90.054h-.772Z" transform="translate(-16.968 -48.585)"/>
    <path id="bd7a55ff-9531-4106-b5f3-67af2f144458" data-name="Path 133" d="M199.517,128v37.946h1.8V90.054h-1.8Z" transform="translate(-16.968 -48.585)"/>
  </g>
  <path id="e63c46ab-8cee-4615-bcae-6bb9b2dbc42a" data-name="Path 134" d="M16.968,128h199.1L256,48.585Z" transform="translate(-16.968 -48.585)" style="fill: url(#a65059a2-c9f7-474a-b66e-1c94b2a5771a)"/>
</svg>
