<svg id="e05f1f7a-245c-481c-af9d-ba4207f94464" data-name="Layer 1" xmlns="http://www.w3.org/2000/svg" viewBox="0 0 1080 501.766">
  <g>
    <path d="M495.926,461.12s-5.393-3-7.79,1.8-4.2,12.585-5.394,13.184-6.592,5.993-3,10.188,7.191,8.39,10.188,8.39h90.492s3-4.195,2.4-7.192-3.6-8.989-7.791-8.989-15.581-2.4-16.78-3-20.975-12.585-22.173-13.185-4.195-3-4.795-5.393-1.2-6.592-1.2-6.592-6.952-1.2-6.173-.6,1.378,10.188,1.378,10.188-13.6,6.952-14.622,7.671S495.926,461.12,495.926,461.12Z" transform="translate(0 0)" style="fill: #fff"/>
    <path d="M190.89,70.386s-4.195.6-5.393,0S174.709,60.2,166.919,57.2c0,0-15.582-1.8-17.38-1.2s-3,8.39-1.8,11.386a38.754,38.754,0,0,1,1.8,5.993,7.265,7.265,0,0,0-.6,3c0,1.8,4.794,8.39,5.394,9.588s5.993,7.791,8.989,7.791,3.6-4.794,1.8-6.592,0-3.6,2.4-1.8a37.274,37.274,0,0,0,7.191,3.6l8.99,1.2,2.157,2.517,7.431-.12,2.4-19.776Z" transform="translate(0 0)" style="fill: #fff"/>
    <path d="M454.516,187.726l16.84-16.66s83.3-35.358,93.488-41.351,20.376-10.787,20.376-10.787,1.8,3,4.195,1.8,20.975-11.387,23.372-11.986,7.192-3,7.791-5.394,3-8.989,3-11.386-4.195-2.4-4.195-2.4-.6-8.989-.6-9.589-7.791-7.79-7.791-7.79L570.238,90.162l3,1.2s-28.765,4.794-30.563,5.393-19.177,12.585-19.177,13.784-13.784,3.6-23.972,7.191-10.188,1.8-10.188,1.8-5.993-2.1-7.491-1.079-8.689,2.278-8.689,2.278l-11.387,3.595-3,31.763Z" transform="translate(0 0)" style="fill: #fff"/>
    <path d="M386.856,99.751l-8.989-6.592c-2.4-1.8-14.383,1.2-14.383,1.2l-3.595,1.8c-1.2.6-10.188-1.8-11.387-.6s-5.393,2.4-5.393,2.4-18.578,4.794-23.373,2.4-11.985-2.4-11.985-2.4-11.986-5.394-14.383-4.794-8.39,0-8.39,0-13.784-7.192-26.968-7.791c0,0-8.989-1.2-10.188-1.8s-14.982-4.794-18.578-4.794-29.365-7.192-32.361-7.791a34.845,34.845,0,0,0-5.993-.6s4.2,4.794,2.4,10.787-3.595,11.386-5.993,11.386-2.4-3-2.4-3-1.2-.6-1.2.6,1.8,4.195,1.8,4.195,52.737,22.174,80.3,28.167c0,0,16.18,5.393,19.776,7.79s16.181,5.394,19.777,5.993,10.187,7.192,29.365,7.192c0,0,7.191,3.595,7.191,4.195s5.394,13.783,5.394,13.783,5.393,0,7.191.6,19.776.6,22.773-1.2,17.978-27.567,16.78-29.365-.6-23.972-2.4-25.769A65.747,65.747,0,0,1,386.856,99.751Z" transform="translate(0 0)" style="fill: #fff"/>
    <path d="M28.484,419.769s12.585-1.2,26.968-13.184,50.939-38.954,55.733-39.553,42.549-9.588,42.549-9.588,2.158-13.544,6.772-12.765a26.5,26.5,0,0,0,8.57,0s6.053-2.577,6.412,0,5.814-4.015,5.814-4.015,1.8-3.6,4.794-3S217.259,310.1,217.259,310.1s.6-3.6,2.4-3.6,13.184-10.787,13.184-10.787l17.379-10.188s-3.595-7.191.6-7.79S264,269.948,265.2,266.951s5.394-7.79,5.394-7.79,14.383-26.369,23.971-30.564a225.271,225.271,0,0,1,21.575-7.791s26.968,83.9,23.372,95.886,55.733-37.755,55.733-37.755S436,293.919,447.984,301.111,477.349,312.5,478.547,313.7s9.589,13.783,10.188,21.574,5.154,11.027,5.154,11.027-.959,6.952,1.438,9.349,7.791,21.574,9.589,26.368,5.393,33.56,6.592,37.156,11.188,29.964,14.184,32.961,1.4,10.79-.4,10.79-9.588,4.195-9.588,4.195-5.993,3.6-8.39,3.6-11.387-9.592-11.387-9.592-22.772-70.116-31.762-82.7-9.588-16.78-12.585-14.983-21.574-10.187-26.368-7.79-50.34-2.4-52.737-5.394-41.95-10.787-41.95-10.787l-22.773-4.195s-56.333,16.78-61.127,21.574-29.365,18.578-32.961,20.975-22.773,4.795-22.773,4.795-3,4.794-4.195,5.393a101.587,101.587,0,0,1-14.383,3c-1.8,0-14.383-1.2-14.383-1.2s-85.7,35.358-96.485,37.755-14.382,16.78-14.382,16.78l-7.791-1.8-10.188-2.4-11.986-3.6,11.387-16.78" transform="translate(0 0)" style="fill: #fff"/>
    <path d="M467.161,123.722l-1.8,5.394-8.39,3L425.81,113.534l-2.4-7.79s.6-4.8,1.2-4.8,3.656-5.094,5.394-4.195c7.431,3.836,27.507,11.267,35.358,17.38C467.64,115.872,467.161,123.722,467.161,123.722Z" transform="translate(0 0)" style="fill: #fff"/>
    <path d="M445.586,32.031s31.163-4.195,40.153,25.17,5.992,39.553,5.992,39.553-7.131,21.814-14.982,23.372a18.08,18.08,0,0,0-3.416.839l-3.775.959L441.991,34.429Z" transform="translate(0 0)" style="fill: #fff"/>
    <path d="M46.462,447.336s-7.191,7.791-7.191,11.387-1.8,23.372-1.8,28.166-3,10.787-3,10.787-20.376,9.589-30.564-.6c0,0-8.39-8.989-.6-37.156C8.108,442.6,12,433.912,14.281,429.777a13.787,13.787,0,0,1,4.614-5.034c3.116-2.1,8.33-5.393,9.589-4.974s-5.154,9.888-7.551,13.244a1.738,1.738,0,0,0,.359,2.338c1.379.958,4.015,2.157,8.39,1.8,6.652-.539,10.188,3,10.188,3s7.192,2.4,7.192,4.195A7.245,7.245,0,0,1,46.462,447.336Z" transform="translate(0 0)" style="fill: #fff"/>
    <path d="M610.989,72.184s11.387-17.38,21.575-18.578c0,0,1.2-5.993,2.4-5.993s21.574,1.8,22.173,25.17c0,0-5.393,2.4-8.989,2.4,0,0,.6,5.993-.6,6.592s-.6,8.989-3.6,9.589-4.2.6-4.794-.6-14.383,9.589-15.582,10.788-3.3,3.236-3.476,3.116-5.513-17.5-5.513-17.5Z" transform="translate(0 0)" style="fill: #fff"/>
    <path d="M649.943,54.8S704.6,2.966,729.048.269c16.181-1.8,26.369,5.993,26.369,5.993l-2.4.6s-12.765-8.449-27.567-3.595C694.29,13.454,652.34,57.2,652.34,57.2Z" transform="translate(0 0)" style="fill: #fff"/>
    <path d="M342.509,329.876l55.734-49.74s59.928-100.68,64.723-103.677,5.393-35.957,3-40.152-29.365-1.8-29.365-1.8-11.386-18.578-12.585-24.57-10.188-8.99-14.383-7.791a29.506,29.506,0,0,1-9.588.6s-10.787-4.195-13.185-3,6.593,26.368,2.4,33.56-16.78,31.163-27.568,27.567S349.1,150.69,349.1,150.69l-7.191-3s-1.2,15.581-1.2,16.78-5.393,11.985-4.794,13.184-5.993,10.787-5.393,11.986-5.993,8.39-5.993,10.787-13.784,19.177-13.784,19.177Z" transform="translate(0 0)" style="fill: #fff"/>
    <path d="M440.193,33.829s4.794-3,5.393-1.8,27.568,87.5,27.568,87.5,1.2,4.195-2.4,4.195h-3.595l-9.589-6.592L433.6,38.624Z" transform="translate(0 0)" style="fill: #fff"/>
    <path d="M401.239,44.616l20.376,55.135,3,1.2,42.55,22.773s1.258-1.5,1.2-1.8c-1.857-6.712-25.889-86.357-28.166-88.095S401.239,44.616,401.239,44.616Z" transform="translate(0 0)" style="fill: #fff"/>
    <path d="M423.413,105.744v4.794l11.986,25.17,26.967-.6s3-5.394,3-5.993S423.413,105.744,423.413,105.744Z" transform="translate(0 0)" style="fill: #fff"/>
  </g>
  <g>
    <path d="M825.533,300.511c-5.393,3-87.495,37.755-91.69,38.954s-35.358,22.773-35.358,22.773c-3.6,15.581-24.571,43.148-33.56,50.34s-34.159,41.95-34.159,41.95l-14.383,9.588L600.8,444.34s29.365-41.351,32.362-49.741,21.574-38.354,27.567-46.744a57.614,57.614,0,0,0,8.39-18.578c.6-1.8,6.592-19.177,21.574-22.773,0,0,34.759-36.556,64.124-49.141,0,0,17.978-13.784,20.375-14.982s6.593-10.787,6.593-10.787,41.95,43.148,46.145,50.34,10.787-4.8,10.787-4.8S870.48,225.6,874.675,222.6c1.2-.839,14.023-14.922,18.578-19.776,2.4-2.577,2.936,4.974,3.595,4.794,2.577-.719-5.992,13.784-5.992,13.784s1.8,13.184,3,14.383,8.39,8.989,4.794,9.588,0,7.791,0,7.791,1.2,4.794,1.8,5.393,4.2,2.4,4.2,5.394,5.394,5.394,5.993,10.188,7.791,6.592,9.589,12.585,36.556,66.521,36.556,66.521,7.191,4.794,7.791,7.79,4.794,5.993,4.794,5.993,16.181,1.8,19.776,3.6,22.174,14.982,27.568,20.975,13.783,13.783,15.581,14.982,20.975,16.181,19.177,21.574l-16.78,15.582s-19.177-19.777-23.971-22.174-30.564-10.787-33.56-11.386-6.592-4.795-6.592-4.795-14.983,1.8-18.578,0-34.759-16.78-43.748-38.953c0,0-57.532-58.73-67.719-62.925s-12.585-4.195-12.585-4.195Z" transform="translate(0 0)" style="fill: #fff"/>
    <path d="M880.068,225s13.784-20.975,14.383-22.173,1.8-9.589,0-11.387-16.78-25.769-16.78-25.769l-9.588-41.95s-5.993,4.2-11.387,3-15.581-7.192-16.78-14.383-4.2-22.174-1.2-26.968l7.191-11.387s-13.783-1.8-19.776-5.393a26.844,26.844,0,0,1-10.787-1.2c-5.094-1.857-9.529-8.09-10.188-8.39s-1.2,24.571-1.8,32.362-1.2,8.989-1.2,8.989l62.925,92.889S883.065,212.416,880.068,225Z" transform="translate(0 0)" style="fill: #fff"/>
    <path d="M750.623,103.346l3,21.575L771.6,135.109l32.361-21.575-.6-13.184S807.555,62.6,805.158,59s.6-7.79-4.795-8.989l-13.184-3-36.556,6.592Z" transform="translate(0 0)" style="fill: #fff"/>
    <path d="M727.85,93.758s-28.167,26.368-29.964,28.166S684.7,135.109,683.5,135.109s-10.188,8.39-10.188,8.39-4.794,2.4-7.791,4.195-16.78,4.794-18.578,4.794-16.78,8.989-17.978,8.989-43.149,10.787-43.149,10.787h-8.39c-1.8,0-12.585-4.2-14.383-4.2s-4.794,1.8-4.794,1.8,1.2,22.773-3,25.769,8.39,13.185,10.188,12.585,12.585-5.992,12.585-5.992,38.953-3,54.535-7.791a130.943,130.943,0,0,1,29.365-5.394s34.159-13.783,41.35-22.773,20.975-11.386,20.975-11.386l15.941-4.794-3.356-12.585.6-35.957Z" transform="translate(0 0)" style="fill: #fff"/>
    <path d="M551.66,165.672s-10.787,2.4-10.787,14.982,7.191,19.177,7.191,19.177,13.784-2.4,12.585-16.18S551.66,165.672,551.66,165.672Z" transform="translate(0 0)" style="fill: #fff"/>
    <path d="M463.146,179.036l82.521.42s2.4,4.2,0,4.794-85.158-2.517-85.158-2.517Z" transform="translate(0 0)" style="fill: #fff"/>
    <path d="M843.752,73.442s6.951-1.858,9.948.539,8.39-3,10.787-1.2,3.6,4.794,4.794,5.393,15.582,1.8,15.582,1.8l23.372,10.787,20.975,3c4.195.6,27.567,26.368,34.758,30.563s32.961,41.95,32.961,41.95l-1.8,3.6s-11.386,10.188-14.383,9.589-13.184-9.589-13.184-11.387-4.195-.6-4.794-1.8-5.993-9.588-5.993-9.588-36.556-27.567-37.156-26.968-16.18,0-17.978-.6-5.394-5.394-5.394-5.394H868.083l-3.117,2.817-9.468,5.573-24.571-22.773,3.6-32.361Z" transform="translate(0 0)" style="fill: #fff"/>
    <path d="M995.731,171.066s7.191,19.776,7.191,22.173,0,6.592-.6,6.592-10.188,6.593-10.787,6.593-2.4,4.195-3,3.595-4.195-.6-4.794-2.4-3-9.588-3-9.588l-1.8-11.986v-7.012l14.982-9.768Z" transform="translate(0 0)" style="fill: #fff"/>
    <path d="M735.041,100.949s-1.8,37.755-.6,40.152,17.979,26.369,19.177,27.568,6.592,8.39,6.592,9.588S767.4,192.64,772.2,196.236c0,0,4.794,16.78,6.592,21.574s1.2,13.184,1.2,13.184,40.152,52.737,49.141,55.135,14.383-3,14.383-3S877.671,226.2,880.068,225s.6-11.386-.6-13.783S805.757,101.549,803.36,100.35s-7.791,16.78-9.589,17.979S773.4,130.914,771,131.513s-14.382-4.794-14.982-6.592-1.8-19.777-1.8-19.777S739.236,106.942,735.041,100.949Z" transform="translate(0 0)" style="fill: #fff"/>
    <path d="M735.041,11.056,779.388.869s16.78,12.585,20.975,49.74c0,0-26.368.6-31.762,3.6,0,0,0,13.184.6,23.372s-2.4,24.571-5.394,26.369-10.787,1.8-10.787,1.8Z" transform="translate(0 0)" style="fill: #fff"/>
    <path d="M1032.287,406.585a88.1,88.1,0,0,1,8.929,3.715c5.813,2.877,12.765,7.252,15.042,12.466,4.195,9.588,16.181,22.772,16.181,22.772s10.787,19.777,6.592,26.968-13.184,9.589-14.982,8.99-14.383-1.2-16.181-5.993-6.592-15.582-6.592-15.582l-10.188-17.978-4.195-5.634-6.831-6.951s8.27,8.03,10.547,8.21,11.267-7.012,12.465-7.611,5.394-6.592,4.794-8.39S1032.287,406.585,1032.287,406.585Z" transform="translate(0 0)" style="fill: #fff"/>
    <path d="M735.041,11.056s-23.372,7.791-22.773,28.167,6.593,43.148,10.788,49.141,14.143,15.762,17.259,16.6,12.7.779,12.7.779,8.39-32.362-3-62.326S735.041,11.056,735.041,11.056Z" transform="translate(0 0)" style="fill: #fff"/>
    <path d="M545.667,444.939s-5.993,3.6-3,8.39,15.581,13.184,21.574,16.181S592.411,480.3,593.011,480.3s8.39,5.394,10.188,5.993,27.686,2.157,30.323-2.517.24-13.664.24-13.664-3.6-14.982-3-15.581-7.791,4.195-10.787,5.393-7.192-4.794-7.192-4.794S602,444.34,600.8,444.34s-10.187,0-11.386.6-15.581,4.195-16.181,4.195S545.667,444.939,545.667,444.939Z" transform="translate(0 0)" style="fill: #fff"/>
  </g>
</svg>
