<svg xmlns="http://www.w3.org/2000/svg" viewBox="0 0 1224.672 811.211">
  <g id="ab0d9d54-ef06-4263-ac0f-de66573a8c3e" data-name="Layer 2">
    <g id="bd3ff6f2-440a-4238-bc3e-63111a5ed29e" data-name="Layer 1">
      <g id="ee87dc1b-f01d-440c-b48d-754494b0d92f" data-name="fencer 2">
        <path d="M800.056,500c-9,5-146,63-153,65s-59,38-59,38c-6,26-41,72-56,84s-57,70-57,70l-24,16-26-33s49-69,54-83,36-64,46-78,13-28,14-31,11-32,36-38c0,0,58-61,107-82,0,0,30-23,34-25s11-18,11-18,70,72,77,84,18-8,18-8,53-86,60-91c1.978-1.413,23.429-24.9,31-33,4.02-4.3,4.851,8.315,6,8,4.342-1.192-10,23-10,23s3,22,5,24,14,15,8,16,0,13,0,13,2,8,3,9,7,4,7,9,9,9,10,17,13,11,16,21,61,111,61,111,12,8,13,13,8,10,8,10,27,3,33,6,37,25,46,35,23,23,26,25,35,27,32,36l-28,26s-32-33-40-37-51-18-56-19-11-8-11-8-25,3-31,0-58-28-73-65c0,0-96-98-113-105s-21-7-21-7Z" style="fill: #f6f6f6"/>
        <path d="M891.056,374s23-35,24-37,3-16,0-19-28-43-28-43l-16-70s-10,7-19,5-26-12-28-24-7-37-2-45,12-19,12-19-23-3-33-9c0,0-9.53,1.086-18-2-9.854-3.59-15.925-13.462-17-14-2-1-2,41-3,54s-2,15-2,15l105,155S896.056,353,891.056,374Z" style="fill: #ececec"/>
        <path d="M675.056,171l5,36,30,17,54-36-1-22s7-63,3-69,1-13-8-15-22-5-22-5l-61,11Z" style="fill: #ececec"/>
        <path d="M637.056,155s-47,44-50,47-22,22-24,22-17,14-17,14-8,4-13,7-28,8-31,8-28,15-30,15-72,18-72,18h-14c-3,0-21-7-24-7s-8,3-8,3,2,38-5,43,14,22,17,21,21-10,21-10,65-5,91-13a218.52,218.52,0,0,1,49-9s57-23,69-38,35-19,35-19l26.59-7.994L652.056,228l1-60Z" style="fill: #f6f6f6"/>
        <path d="M343.056,275s-18,4-18,25,12,32,12,32,23-4,21-27S343.056,275,343.056,275Z" style="fill: #ddd"/>
        <path d="M195.385,297.3l137.671.7s4,7,0,8-142.143-4.224-142.143-4.224Z" style="fill: #9b9a9a"/>
        <path d="M830.416,121.106s11.64-3.106,16.64.894,14-5,18-2,6,8,8,9,26,3,26,3l39,18,35,5c7,1,46,44,58,51s55,70,55,70l-3,6s-19,17-24,16-22-16-22-19-7-1-8-3-10-16-10-16-61-46-62-45-27,0-30-1-9-9-9-9h-47l-5.161,4.652L850.056,219l-41-38,6-54Z" style="fill: #f6f6f6"/>
        <path d="M1084.056,284s12,33,12,37,0,11-1,11-17,11-18,11-4,7-5,6-7-1-8-4-5-16-5-16l-3-20,.05-11.7,24.95-16.3Z" style="fill: #ececec"/>
        <path d="M649.056,167s-3,63-1,67,30,44,32,46,11,14,11,16,12,24,20,30c0,0,8,28,11,36s2,22,2,22,67,88,82,92,24-5,24-5,57-95,61-97c4.561-2.28,1-19-1-23s-123-183-127-185-13,28-16,30-34,21-38,22-24-8-25-11-3-33-3-33S656.056,177,649.056,167Z" style="fill: #ddd"/>
        <path d="M649.056,17l74-17s28,21,35,83c0,0-44,1-53,6,0,0,0,22,1,39s-4,41-9,44-18,3-18,3Z" style="fill: #f6f6f6"/>
        <path d="M1145.056,677a133.077,133.077,0,0,1,14.869,6.233c9.723,4.778,21.307,12.026,25.131,20.767,7,16,27,38,27,38s18,33,11,45-22,16-25,15-24-2-27-10-11-26-11-26l-17-30-7.05-9.379-11.329-11.627s13.8,13.422,17.59,13.714S1161.056,717,1163.056,716s9-11,8-14S1145.056,677,1145.056,677Z" style="fill: #ddd"/>
        <path d="M649.056,17s-39,13-38,47,11,72,18,82,23.627,26.3,28.814,27.652S679.056,175,679.056,175s14-54-5-104S649.056,17,649.056,17Z" style="fill: #9b9a9a"/>
        <path d="M333.056,741s-10,6-5,14,26,22,36,27,47,18,48,18,14,9,17,10,46.205,3.553,50.6-4.224.4-22.776.4-22.776-6-25-5-26-13,7-18,9-12-8-12-8-18-18-20-18-17,0-19,1-26,7-27,7S333.056,741,333.056,741Z" style="fill: #ddd"/>
        <polygon points="0 293.025 195.385 297.304 190.913 301.776 0 294.068 0 293.025" style="fill: #9b9a9a"/>
      </g>
    </g>
  </g>
</svg>
