<svg xmlns="http://www.w3.org/2000/svg" viewBox="0 0 1260.529 837.273">
  <g id="f80c4472-9de2-4b04-a797-57a8a01e9379" data-name="Layer 2">
    <g id="bb185269-e18d-4b24-ac1b-2e111939485e" data-name="Layer 1">
      <g id="b1938292-ab04-48c6-85ef-6b5b386a73f1" data-name="fencer 1">
        <path d="M827.529,769.449s-9-5-13,3-7,21-9,22-11,10-5,17,12,14,17,14h151s5-7,4-12-6-15-13-15-26-4-28-5-35-21-37-22-7-5-8-9-2-11-2-11-11.608-2.037-10.3-1.018,2.1,14.07,2.1,14.07-26.64,13.525-28.274,14.73S827.529,769.449,827.529,769.449Z" style="fill: #ddd"/>
        <path d="M318.529,117.449s-7,1-9,0-18-17-31-22c0,0-26-3-29-2s-5,14-3,19a64.727,64.727,0,0,1,3,10,12.157,12.157,0,0,0-1,5c0,3,8,14,9,16s10,13,15,13,6-8,3-11,0-6,4-3,12,6,12,6l15,2,3.622,4.156,12.378-.156,4-33Z" style="fill: #ececec"/>
        <path d="M758.4,313.288l28.13-27.839s139-59,156-69,34-18,34-18,3,5,7,3,35-19,39-20,12-5,13-9,5-15,5-19-7-4-7-4-1-15-1-16-13-13-13-13l-68,30,5,2s-48,8-51,9-32,21-32,23-23,6-40,12-17,3-17,3-10.031-3.527-12.515-1.764-14.485,3.764-14.485,3.764l-19,6-5,53Z" style="fill: #f6f6f6"/>
        <path d="M645.529,166.449s-11-8-15-11-24,2-24,2l-6,3c-2,1-17-3-19-1s-9,4-9,4-31,8-39,4-20-4-20-4-20-9-24-8-14,0-14,0-23-12-45-13c0,0-15-2-17-3s-25-8-31-8-49-12-54-13a58.164,58.164,0,0,0-10-1s7,8,4,18-6,19-10,19-4-5-4-5-2-1-2,1,3,7,3,7,88,37,134,47c0,0,27,9,33,13s27,9,33,10,17,12,49,12c0,0,12,6,12,7s9,23,9,23,9,0,12,1,33,1,38-2,30-46,28-49-1-40-4-43A109.583,109.583,0,0,1,645.529,166.449Z" style="fill: #f6f6f6"/>
        <path d="M47.529,700.449s21-2,45-22,85-65,93-66,71-16,71-16,3.572-22.646,11.286-21.323a43.5,43.5,0,0,0,14.311,0s10.062-4.323,10.733,0,9.67-6.677,9.67-6.677,3-6,8-5,52-46,52-46,1-6,4-6,22-18,22-18l29-17s-6-12,1-13,22-13,24-18,9-13,9-13,24-44,40-51a375.861,375.861,0,0,1,36-13s45,140,39,160,93-63,93-63,68,25,88,37,49,19,51,21,16,23,17,36,8.609,18.361,8.609,18.361-1.609,11.639,2.391,15.639,13,36,16,44,9,56,11,62,17,50,22,55,4,13,1,13-16,7-16,7-10,6-14,6-19-11-19-11-38-117-53-138-16-28-21-25-36-17-44-13-84-4-88-9-70-18-70-18l-38-7s-94,28-102,36-49,31-55,35-38,8-38,8-5,8-7,9-21,5-24,5-24-2-24-2-143,59-161,63-24,28-24,28l-13-3-17-4-20-6,19-28" style="fill: #f6f6f6"/>
        <path d="M779.529,206.449l-3,9-14,5-52-31-4-13s1-8,2-8c.152,0,6.147-8.489,9-7,12.351,6.448,45.95,18.78,59,29C780.3,193.4,779.529,206.449,779.529,206.449Z" style="fill: #ececec"/>
        <path d="M743.529,53.449s52-7,67,42,10,66,10,66-11.917,36.384-25,39c-5,1-5.677,1.41-5.677,1.41l-6.323,1.59-46-146Z" style="fill: #9b9a9a"/>
        <path d="M77.529,746.449s-12,13-12,19-3,39-3,47-5,18-5,18-34,16-51-1c0,0-14-15-1-62C13.52,738.561,20,724.028,23.806,717.118a23.921,23.921,0,0,1,7.689-8.375c5.216-3.476,13.963-8.984,16.034-8.294,2.467.822-8.582,16.511-12.593,22.069a2.783,2.783,0,0,0,.635,3.883c2.269,1.652,6.616,3.66,13.959,3.048,11.141-.928,17,5,17,5s12,4,12,7A12.138,12.138,0,0,1,77.529,746.449Z" style="fill: #ddd"/>
        <path d="M1019.529,120.449s19-29,36-31c0,0,2-10,4-10s36,3,37,42c0,0-9,4-15,4,0,0,1,10-1,11s-1,15-6,16-7,1-8-1-24,16-26,18-5.515,5.41-5.757,5.2-9.243-29.2-9.243-29.2Z" style="fill: #ececec"/>
        <path d="M1084.529,91.449s91.239-86.471,132-91c27-3,44,10,44,10l-4,1s-21.323-14.067-46-6c-52,17-122,90-122,90Z" style="fill: #ccc"/>
        <path d="M571.529,550.449l93-83s100-168,108-173,9-60,5-67-49-3-49-3-19-31-21-41-17-15-24-13-16,1-16,1-18-7-22-5,11,44,4,56-28,52-46,46-21-17-21-17l-12-5s-2,26-2,28-9,20-8,22-10,18-9,20-10,14-10,18-23,32-23,32Z" style="fill: #ececec"/>
        <path d="M734.529,56.449s8-5,9-3,46,146,46,146,2,7-4,7h-6l-16-11-40-131Z" style="fill: #ececec"/>
        <path d="M671.841,80.7l31.688,85.745,5,2,71,38s2.136-2.515,2-3c-3.13-11.206-43.165-144.124-47-147-3.2-2.4-42.962,10.587-58.672,15.857A6.483,6.483,0,0,0,671.841,80.7Z" style="fill: #f6f6f6"/>
        <path d="M706.529,176.449v8l20,42,45-1s5-9,5-10S706.529,176.449,706.529,176.449Z" style="fill: #ddd"/>
      </g>
    </g>
  </g>
</svg>
