<?xml version="1.0" encoding="utf-8"?>
<!-- Generator: Adobe Illustrator 24.1.2, SVG Export Plug-In . SVG Version: 6.00 Build 0)  -->
<svg version="1.1" id="Layer_1" xmlns="http://www.w3.org/2000/svg" xmlns:xlink="http://www.w3.org/1999/xlink" x="0px" y="0px"
	 viewBox="0 0 1080 1080" style="enable-background:new 0 0 1080 1080;" xml:space="preserve">
<g>
	<path d="M547.3,640.8c-57.9-75.1-100.5-154.4-65.4-254.3c-23.7,19.1-40.1,63.7-37.9,99.4c2.2,35.3,14.7,67.4,31.1,98.1
		c21.3,39.8,44.6,78.5,64.7,118.8c10.6,21.3,18,44.6,23.6,67.8c7.5,31.3,1.7,61.8-14.4,89.9c-21.5,37.5-54.5,62.9-93.1,88
		c15-39.9,6.2-75-8.1-108.4c-20.7-48.3-44.2-95.4-66.4-143.1c-20.7-44.6-39.2-90-47.1-139c-13.3-82.3,11.1-151.7,71.8-207.9
		c21.2-19.6,44.9-36.5,66.6-53.9c-39.6-0.6-117.5,58.9-150.2,118.7c-53.5,97.8-47.6,193.9,13.6,289.5c-5.5-2.5-9.3-3.9-12.8-5.9
		c-77.3-42.3-120.3-135.1-104.5-225.4c16.6-95.3,73.1-157.9,160.3-195.3c5.9-2.5,12-4.7,20.9-8.1c-36.1,1-95.1,32.4-135.2,70.5
		c-37.4,35.5-63.8,78-79.7,127.2c2.9-52.4,24.3-96.6,60.4-133.7c60.5-62.2,136.5-96.4,220-112.8c28.7-5.6,44-16.4,49.8-44.4
		c2.9-14,9.5-27.2,16-45.2c19.1,24.6,36.7,46.1,52.7,68.7c7.8,10.9,14.3,17.9,29.7,15.6c17.5-2.6,29.7,6.4,40.4,22.2
		c31.6,46.3,65.1,91.3,99.2,135.9c38.1,49.8,77.7,98.3,116.3,147.7c38,48.6,33.5,72.1-18.9,105.1c-40.4,25.4-40.3,25.3-71-10
		c-6.2-7.2-13.1-13.8-19.9-20.5c-28.4-28.2-61-46.5-102.6-45.7c-11.9,0.3-23.9-2.2-35.8-4.1c-26.3-4.3-49.6-14.7-69.2-33.5
		c-10.3-9.9-21.9-17.9-37.8-11.6c-9.9,3.9-15.1,10.2-11.9,20.8c5.1,16.7,10.3,33.5,16.5,49.8C528.1,595,537.9,617.8,547.3,640.8z
		 M678.4,339.8c0.6,8.4,3.4,19,1.5,28.6c-3,14.7-1.1,22.1,13.7,26c14,3.7,28.5,5.6,44.9,8.7C716.7,380.2,696.7,359.1,678.4,339.8z"
		/>
</g>
</svg>
